<svg id="ePrkKV1wFqa1" xmlns="http://www.w3.org/2000/svg" xmlns:xlink="http://www.w3.org/1999/xlink" viewBox="0 0 800 800" shape-rendering="geometricPrecision" text-rendering="geometricPrecision">
<style><![CDATA[
#ePrkKV1wFqa2_tr {animation: ePrkKV1wFqa2_tr__tr 2000ms linear infinite normal forwards}@keyframes ePrkKV1wFqa2_tr__tr { 0% {transform: translate(399.999995px,400.000012px) rotate(89.999998deg)} 75% {transform: translate(399.999995px,400.000012px) rotate(-0.000004deg)} 100% {transform: translate(399.999995px,400.000012px) rotate(-0.000004deg)}} #ePrkKV1wFqa3 {animation: ePrkKV1wFqa3_c_o 2000ms linear infinite normal forwards}@keyframes ePrkKV1wFqa3_c_o { 0% {opacity: 1} 75% {opacity: 1} 80% {opacity: 0} 100% {opacity: 0}} #ePrkKV1wFqa7 {animation: ePrkKV1wFqa7_c_o 2000ms linear infinite normal forwards}@keyframes ePrkKV1wFqa7_c_o { 0% {opacity: 1} 75% {opacity: 1} 80% {opacity: 0} 100% {opacity: 0}}
]]></style>
<g id="ePrkKV1wFqa2_tr" transform="translate(399.999995,400.000012) rotate(89.999998)"><path d="M16,-67.349715c0-35.3,28.7-64,64-64h224c35.3,0,64,28.7,64,64L368,448c0,35.3-28.7,64-64,64h-224c-35.3,0-64-28.7-64-64v-515.349715ZM224,448c0-17.673112-14.326888-32-32-32s-32,14.326888-32,32s14.326888,32,32,32s32-14.326888,32-32ZM328,-67.349715h-272L56,384h272v-451.349715Z" transform="translate(-192.000009,-190.32515)" fill="#fff"/></g><g id="ePrkKV1wFqa3"><path d="M734.05955,214.960058Q739.86928,89.082547,612.055192,52.287582" fill="none" stroke="#fff" stroke-width="15" stroke-linecap="round" stroke-linejoin="round"/><path d="M612.055192,52.287582v67.780198" transform="matrix(.96122-.275782 0.275782 0.96122 9.315385 170.821436)" fill="none" stroke="#fff" stroke-width="15" stroke-linecap="round" stroke-linejoin="round"/><path d="M612.055192,52.287582v67.780198" transform="matrix(-.34531-.938489 0.938489-.34531 774.332755 644.749852)" fill="none" stroke="#fff" stroke-width="15" stroke-linecap="round" stroke-linejoin="round"/></g><g id="ePrkKV1wFqa7" transform="matrix(-.961012 0.276505-.276505-.961012 798.655066 624.715183)"><path d="M734.05955,214.960058Q739.86928,89.082547,612.055192,52.287582" fill="none" stroke="#fff" stroke-width="15" stroke-linecap="round" stroke-linejoin="round"/><path d="M612.055192,52.287582v67.780198" transform="matrix(.96122-.275782 0.275782 0.96122 9.315385 170.821436)" fill="none" stroke="#fff" stroke-width="15" stroke-linecap="round" stroke-linejoin="round"/><path d="M612.055192,52.287582v67.780198" transform="matrix(-.34531-.938489 0.938489-.34531 774.332755 644.749852)" fill="none" stroke="#fff" stroke-width="15" stroke-linecap="round" stroke-linejoin="round"/></g></svg>
